<svg xmlns="http://www.w3.org/2000/svg" viewBox="0 0 762 762" fill="none" shape-rendering="auto"><metadata xmlns:rdf="http://www.w3.org/1999/02/22-rdf-syntax-ns#" xmlns:xsi="http://www.w3.org/2001/XMLSchema-instance" xmlns:dc="http://purl.org/dc/elements/1.1/" xmlns:dcterms="http://purl.org/dc/terms/"><rdf:RDF><rdf:Description><dc:title>Adventurer</dc:title><dc:creator>Lisa Wischofsky</dc:creator><dc:source xsi:type="dcterms:URI">https://www.figma.com/community/file/1184595184137881796</dc:source><dcterms:license xsi:type="dcterms:URI">https://creativecommons.org/licenses/by/4.0/</dcterms:license><dc:rights>Remix of „Adventurer” (https://www.figma.com/community/file/1184595184137881796) by „Lisa Wischofsky”, licensed under „CC BY 4.0” (https://creativecommons.org/licenses/by/4.0/)</dc:rights></rdf:Description></rdf:RDF></metadata><mask id="viewboxMask"><rect width="762" height="762" rx="0" ry="0" x="0" y="0" fill="#fff" /></mask><g mask="url(#viewboxMask)"><rect fill="#ffd5dc" width="762" height="762" x="0" y="0" /><path d="M396 164.8a224.8 224.8 0 0 1 104.8 42.4c6.2 4.9 12.5 9.4 18 15a225.4 225.4 0 0 1 71.8 149 58.5 58.5 0 0 1 50.9 42.2 71 71 0 0 1-27.6 76.5c-11 7.7-24.5 12-38 11.7-5 0-10-1.6-15-1.8-1.9 2.2-3.3 4.9-4.8 7.3A223.3 223.3 0 0 1 389 609.8c-11 .7-21.9 2-33 .7a223.7 223.7 0 0 1-178.8-342.3A223.4 223.4 0 0 1 352 163.5c14.6-1.4 29.4-.3 44 1.3Z" fill="#000"/><path fill-rule="evenodd" clip-rule="evenodd" d="M498.8 213.2A216 216 0 0 0 363 169c-13-.2-26.2 1.6-39 4a218 218 0 0 0-113.6 365.5 218.5 218.5 0 0 0 260.4 40.2c35-18.8 64.2-47.3 84.4-81.5l-3-1.6c-2.8-1.4-5.7-3-8-5-2.2-2-.3-5.8 2.7-4.7 1.5.7 3 1.6 4.4 2.4a55 55 0 0 0 59.6-3.6 64.5 64.5 0 0 0 25-69.8 53.1 53.1 0 0 0-24-31 52.6 52.6 0 0 0-47-2.8c-1.6.8-3.4 1.5-5 1.3-2.5-.2-2.8-4.2-.6-5.2 8-4 16.5-5.6 25.4-6.4a217 217 0 0 0-72-146.4c-4.4-4-8.7-8.1-13.9-11.3Zm107.6 196.2c2-1.2 1.3-5.1-1.4-5-2 0-4.2.8-6.2 1.6l-1.4.4a95.1 95.1 0 0 0-25.5 12.4c-2.2 2-2.2 4.4.1 6.2a92 92 0 0 0 5.2 2.8 36 36 0 0 1 13 9.2c-.2 1.9-2 3.4-3.4 4.5l-.2.2c-3.9 3-8.8 5-13.6 7-2.5 1-4.9 2-7.1 3.1-1.7.8-2.6 2.2-1.6 3.9 1 2 3.2 1.1 5 .5l.6-.2 5.4-2.3c5.4-2.3 11-4.5 15.4-8 2.7-2.1 5.1-5.1 5.4-8.7-.5-3.4-2.7-5.7-5.3-7.8a83 83 0 0 0-11.6-7.2l-1.1-.6c5.4-3 10.8-5.6 16.6-7.7l5-1.7a52 52 0 0 0 6.7-2.6Z" fill="#763900"/><g transform="translate(-161 -83)"><path d="M556 424a65.2 65.2 0 0 1 65.3 75.6c-1 7.5-4 14.2-6.8 21.2-1.4.6-2.9 1.5-4.4 1.8-2.4 0-4.8-1-7-1.6a178.7 178.7 0 0 0-49.1-7.6 96 96 0 0 0-43 9.6c-3.1 1.3-6 4-9 1.3A65 65 0 0 1 556 424Z" fill="#000"/><path d="M557 429.9a58.9 58.9 0 0 1 57.1 43.1 59.3 59.3 0 0 1-4.3 43.5c-5.3-.6-10.1-2.6-15.4-3.8-16-3.7-33-5.8-49.4-4.4a92 92 0 0 0-39.3 11.6 59.5 59.5 0 0 1 51.3-90Z" fill="#fff"/><path d="M381.3 447a55.4 55.4 0 0 1 59.8 45.6 54.9 54.9 0 0 1-101 38.2c-5-8-7.6-17.3-8.2-26.7a55 55 0 0 1 49.4-57Z" fill="#000"/><path d="M376.5 453.7a49.3 49.3 0 1 1 20.9 96.3 49.3 49.3 0 0 1-21-96.3Z" fill="#fff"/><path d="M519.4 474.8a15.9 15.9 0 1 1 7.2 30.8c-9.1 2.3-19-5-19-14.6a15.7 15.7 0 0 1 11.8-16.2ZM403.4 485.6A16 16 0 1 1 399 514a15.9 15.9 0 0 1 4.4-28.4Z" fill="#000"/></g><g transform="translate(-161 -83)"><path d="M607 397.6c1.5-.4 3.2.6 4.7 1 0 1.2-.1 2.4-.4 3.6-1.6 1.5-3.6 2.6-5.4 3.8a803.6 803.6 0 0 1-70.4 40.6A289.9 289.9 0 0 1 500 462a50 50 0 0 1-21 3.5c-3.3-.4-6.2-3-6.2-6.5 0-4.2 3-8.6 5-12.1 1.3-2.7 4.5-3 7-4.1l111.7-41.5c3.5-1.2 7-2.8 10.5-3.7ZM339 432.6l90 18c2.3.4 4.6.1 6.9.5 2.4 2.3 3.6 6.2 4.5 9.4 1.2 4-.1 8.8-4 11-4 2.6-9.8 2.1-14.4 1.9-8.8-1-17.4-3.8-25.7-6.8a418 418 0 0 1-57-27c-1.6-.9-3.6-1.9-4.8-3.5-.3-2.9 1.9-4.1 4.5-3.5Z" fill="#000"/></g><g transform="translate(-161 -83)"><path d="M517.9 557.8c1.5.3 2.8 1.6 2.7 3.2-7 16.8-15 33.2-25.1 48.4-4.7 7-9.2 14.2-14.5 20.6-2.1 3.3-8 3-10.8.8-6.9-5-13.3-10.7-19-16.9-9.3-10.4-18-20.1-24.8-32.4-.8-1.9-2.3-4-.8-5.9.6-1.2 3-.8 3.6.2 5.1 9.2 11.4 17.7 18.5 25.5a154 154 0 0 0 22.7 22.3c1.2.8 2.4 1.7 3.8 2 2.6.4 3.8-1.2 5.3-3.1 13.5-19 25.7-38.8 34.6-60.4.9-2 1.5-3.7 3.8-4.3Z" fill="#000"/></g><g transform="translate(-161 -83)"></g><g transform="translate(-161 -83)"></g><g transform="translate(-161 -83)"><path d="M559 229c42.7 5.5 86.5 17 124.8 37.2 25.9 13.7 50.7 32.2 67 56.9 4.1 5.7 6 12 8.6 18.4 4.8 12 7.7 24 11 36.5 8 31 18 61.6 29 91.6 12.8 35 27.1 69.2 43.5 102.5 1.4 2.9 3 5.6 4.6 8.4.8 1.3 1 2.7 0 4a64 64 0 0 1-16 13 226 226 0 0 1-39.7 19.1A423.3 423.3 0 0 1 679 642.4c-3.9.3-7 1.3-10.6-1 .4-2.5.4-4.6 2.5-6.4 5.5-5 11-10.2 16.2-15.8a402.6 402.6 0 0 1-64.6 27.4c-2.9.8-6.5 2.3-9.5 1.6-1.9-.9-2.1-2.8-1.4-4.6 8.7-19.2 12.2-41.7 15-62.5a579 579 0 0 0 4.4-70c.1-18.2 0-36.5-1.8-54.6-37.5-3.9-74.6-15-108.8-30.9-24.2-11.4-48-25.9-68-43.9a157.3 157.3 0 0 1-23.4-26c-1.2 9.4-1 18.9-.9 28.4 0 3.6.3 7.1 1.3 10.6.3 1.7 1.2 3.3 0 4.8-1.1 1.7-3.7 1.1-5.4.6a57.4 57.4 0 0 1-30.4-25.6 73.7 73.7 0 0 1-10.1-40.4A181.7 181.7 0 0 0 351 366a269 269 0 0 0-32.6 48.4 36.7 36.7 0 0 0-3.4 8.5 218.3 218.3 0 0 0 92.4 228.6c1.2.8 2.4 1.6 3.5 2.6.7 1.7 1 3-.4 4.5-2.4 1.4-5.3 2-8 3-22 6.8-44 13.4-65.7 21.3-21.9 8-43.2 17.6-65.2 25.5-1.4-1-2.4-2-3.3-3.4 3.6-7.7 9.3-14 12.5-22.1 9.8-24.3 10-51.2 9.3-77 0-14.7-1.2-29.3-1.9-44-1.4-21.7-2.6-43.3-3.3-65-.6-27.3-2.1-55.7-.1-83 1.4-22 5.4-44.2 13-65a61 61 0 0 1 13.4-21.7c4.9-5 9.8-10.2 15.2-14.8 5.3-4.5 11-8.3 16.4-12.6 15.9-12.5 31-25.7 47-38a225.5 225.5 0 0 1 51-31 60.4 60.4 0 0 1 21.1-4.6 496 496 0 0 1 97 2.7Z" fill="#000"/><path d="M512 231.2c48 1.5 97.4 9.8 142.2 27.7a248 248 0 0 1 57.3 31.5 148 148 0 0 1 35.3 36.9c2.9 4.4 5 9.2 6.6 14.2 2.5 7.9 6 15.3 7.7 23.5 8.5 35 19.4 69.3 31.6 103.2 13.4 36.6 28.2 72.8 45.6 107.6 1 2.2 2.2 4.3 3.6 6.4a96.3 96.3 0 0 1-21.5 15.2 332 332 0 0 1-68.7 26.1c-24.3 6.7-49 11.4-74.2 13.2 8-7.1 15.4-14.7 22.2-23 1.4-1.7 2.9-3.1 4.8-4.2 6.2-3.7 12.3-7.6 18.1-11.8 1.4-1 2.2-2.4 3-3.8-1-1.2-1.7-2.4-3.6-2.4-3 1.3-5.5 3.5-8.2 5.3a387.7 387.7 0 0 1-94.8 44.6c5.5-14.5 8.8-30.1 11.3-45.4 4-24.8 5.8-49.8 6.5-75 .5-33.6-.5-66.7-6-100-.2-1.6-.8-3.6-2.8-3.4-3-.2-3.1 2.4-2.8 4.6 1.6 9.4 2.8 19 3.6 28.4-34.3-4-67.8-13.4-99.3-27.3-21.3-9.5-42-21.1-60.5-35.3-11.5-8.9-22.5-19.1-31.3-30.6-2.4-3.2-4.2-6.3-7.2-8.9-1.3-1.4-2.8-1-4.5-.7-2 2-2.3 4.5-2.6 7.2a157 157 0 0 0-.2 38.4c-7.3-2.8-13.8-8-18.8-13.8A66.9 66.9 0 0 1 398 304c1.1-1.9 1.4-4.3-.9-5.4-2.3-.3-2.9.7-4 2.4a68.5 68.5 0 0 0-9.3 26.7c-12.5 7.4-23 18.7-32.7 29.4a337.3 337.3 0 0 0-25.4 33.5 200.6 200.6 0 0 0-23.4 47.6 99.9 99.9 0 0 0-4 17.9c0 2.9 2.9 4.1 5 2.2.7-1.6 1-3.3 1.5-5a223.8 223.8 0 0 0 98 202.2c-25.3 8-51.7 15.7-76.8 25.4-16.3 6.2-32.2 13.3-48.5 19.8 4.8-7.1 9-14.5 11.4-22.7 8.2-25.3 7.6-51.8 7.1-78-.8-11.4-.8-22.7-1.7-34-.8-10.3-1-20.7-2-31-.6-13-1-26-1.7-39-.7-23.3-.6-46.7-.5-70 .5-22.2 3.5-44.4 9.6-65.8 1.7-5.8 4.4-11.1 7-16.6 4-8.4 10.3-13.8 16.7-20.2 5.8-6 12.4-11 19.1-15.9 27.3-20.9 53.8-46.3 83.8-63.2a99.5 99.5 0 0 1 22.7-10c7.3-2.1 14.4-2.3 22-2.7 13.6-.8 27.4-.5 41-.4Z" fill="#85c2c6"/></g><g transform="translate(-161 -83)"></g></g></svg>